PathFileType	4	(X/Y/Z)	/Users/niels/Desktop/University/Third Semester/Perception and Action/Exam/Gymnastics Motion Tracking/Code for Gym Tracking/Analyzed Data/Webcam_Backflip/temp_id5_4_baseline_Sports2D/temp_id5_4_baseline_Sports2D_px_person00.trc
DataRate	CameraRate	NumFrames	NumMarkers	Units	OrigDataRate	OrigDataStartFrame	OrigNumFrames
29.810126582278482	29.810126582278482	11	22	m	29.810126582278482	0	158
Frame#	Time	Hip			RHip			RKnee			RAnkle			RBigToe			RSmallToe			RHeel			LHip			LKnee			LAnkle			LBigToe			LSmallToe			LHeel			Neck			Head			Nose			RShoulder			RElbow			RWrist			LShoulder			LElbow			LWrist		
		X1	Y1	Z1	X2	Y2	Z2	X3	Y3	Z3	X4	Y4	Z4	X5	Y5	Z5	X6	Y6	Z6	X7	Y7	Z7	X8	Y8	Z8	X9	Y9	Z9	X10	Y10	Z10	X11	Y11	Z11	X12	Y12	Z12	X13	Y13	Z13	X14	Y14	Z14	X15	Y15	Z15	X16	Y16	Z16	X17	Y17	Z17	X18	Y18	Z18	X19	Y19	Z19	X20	Y20	Z20	X21	Y21	Z21	X22	Y22	Z22
0	0.0	0.9740905212042185	-0.5649750548643306	0.0	0.9755353488766859	-0.5635180972599492	0.0	0.9944942183265986	-0.6728938724925652	0.0	0.9697070687552815	-0.7779027915999137	0.0	1.004713959792687	-0.7968629985590228	0.0	0.9959562186807783	-0.7997897180643854	0.0	0.9594973034913344	-0.7924961834466763	0.0	0.9755442445036803	-0.5635206556153806	0.0	0.9901110967412727	-0.6714382182804884	0.0	0.9711489987134581	-0.7706129172037248	0.0	1.0061649747677464	-0.7910471092224595	0.0	1.0032517992982786	-0.7881316834001277	0.0	0.9580155786427605	-0.785206917169216	0.0	0.9988740210563211	-0.42350449502419163	0.0	1.0149242786425368	-0.3549652876167335	0.0	1.0265869539295653	-0.3914259659827492	0.0	1.0003226363390705	-0.43371004133883817	0.0	1.070295797682427	-0.44243313073410584	0.0	1.1358789400879237	-0.42638836307270994	0.0	0.9857424343814991	-0.43371508569375744	0.0	1.0542174862393205	-0.44828006541303783	0.0	1.124179150903888	-0.43222895200497585	0.0
1	0.03354564755838641	0.9713597878784459	-0.5679177116315725	0.0	0.971750950233665	-0.5662487341614347	0.0	1.0006375421776799	-0.6718193733396147	0.0	0.9699812433652483	-0.7753160348266632	0.0	1.0059812142249316	-0.793963042729187	0.0	0.9973496277436857	-0.796939314902788	0.0	0.9590600062968517	-0.7896415985658535	0.0	0.9717419649288849	-0.5657940663125662	0.0	0.9949804497384412	-0.6707447492057392	0.0	0.9712980389014101	-0.7681355011960791	0.0	1.0075096569251552	-0.7883019388162381	0.0	1.003172890259374	-0.7853257821251232	0.0	0.9573142148010635	-0.7827361482888894	0.0	0.9992602651359231	-0.42723486925205534	0.0	1.0170683393626945	-0.35903669619322415	0.0	1.0289625446422836	-0.3959334506151475	0.0	1.0008714534240641	-0.4378854430834645	0.0	1.068543351265134	-0.45575888883892796	0.0	1.1361905765318485	-0.4500839119248856	0.0	0.9861251927418607	-0.4374701708206834	0.0	1.0406331747426132	-0.46167306607998054	0.0	1.1031247378998401	-0.4547652940080362	0.0
2	0.06709129511677282	0.9689405700909063	-0.5715305315348467	0.0	0.9683822999893147	-0.5696583061520509	0.0	1.0065203985152702	-0.6714804699061737	0.0	0.970274339278956	-0.7735906931402574	0.0	1.0074488022936372	-0.7919113831452296	0.0	0.9988703233552982	-0.7949707225409078	0.0	0.9586863111899939	-0.7876151993776082	0.0	0.968765658629081	-0.5688671172321039	0.0	1.0000298542176762	-0.6707685168021807	0.0	0.9715089279447566	-0.7663713164110358	0.0	1.0089198006552391	-0.7865904559489985	0.0	1.0034457111141024	-0.783475072313513	0.0	0.9566460981494654	-0.7809051624878797	0.0	0.999668510312342	-0.4313231783738523	0.0	1.0190279142968226	-0.36377228531142747	0.0	1.03117145261892	-0.40068205211482594	0.0	1.0010691028299317	-0.4425459157943609	0.0	1.0659017782103621	-0.46951907178935426	0.0	1.1350166785056606	-0.47404655647001803	0.0	0.9866862388816593	-0.44176938935304244	0.0	1.028545584355038	-0.4749641398122575	0.0	1.083274991498458	-0.4772496009939223	0.0
3	0.10063694267515924	0.9670801872226097	-0.5763394181309114	0.0	0.9658439391359234	-0.5743097557666208	0.0	1.0119039114861346	-0.6725253831505563	0.0	0.9706071995767568	-0.7734495861768157	0.0	1.009085348459273	-0.7914477091643575	0.0	1.0004941989627976	-0.7946321297079393	0.0	0.9584202323331408	-0.7871187948829225	0.0	0.9671380296758888	-0.5733342915680633	0.0	1.0052801102004054	-0.6721528437279032	0.0	0.9718034882713379	-0.7659897467021567	0.0	1.010461756957317	-0.7867174658508673	0.0	1.0042181808844737	-0.7833275961032312	0.0	0.9560852455822593	-0.7802933930003326	0.0	1.0001278073638902	-0.43614263772214457	0.0	1.02066827573932	-0.36960469536760227	0.0	1.033097408420592	-0.40594967296704687	0.0	1.0007275535655458	-0.4480931506732542	0.0	1.0617075628157724	-0.4840320963498156	0.0	1.131084981590086	-0.49836565646133973	0.0	0.987665251639379	-0.4470605629483891	0.0	1.0205513471378698	-0.4880483554199869	0.0	1.0683953081906226	-0.49949289197610947	0.0
4	0.13418259023354565	0.9659213208454371	-0.5825666905026814	0.0	0.9644500847483641	-0.5804647642427483	0.0	1.016586772771688	-0.675385049626532	0.0	0.9709917124254243	-0.7753398713465102	0.0	1.010641769210444	-0.7930996652183787	0.0	1.0020548000059146	-0.7964140159948355	0.0	0.9582708487568694	-0.7885978870756508	0.0	0.9669421427484131	-0.5793965603479719	0.0	1.0105380620717406	-0.6752950828302733	0.0	0.9721723588912854	-0.7674953151890115	0.0	1.0121695626172234	-0.7890709994900287	0.0	1.005464474534248	-0.7852783923418801	0.0	0.9557354806150258	-0.781343955829542	0.0	1.000646828387742	-0.44196711877541994	0.0	1.02189435571812	-0.3765895225673354	0.0	1.0346782579083567	-0.41200421432052453	0.0	0.9998962329287258	-0.45477263563914777	0.0	1.0557207121100427	-0.49942673380593344	0.0	1.1237311021249667	-0.5228415451666653	0.0	0.9893041110919516	-0.4535940411626221	0.0	1.0190003749602936	-0.5008881655081833	0.0	1.062687351143327	-0.5211146500271955	0.0
5	0.16772823779193205	0.9655041256562658	-0.590065255101799	0.0	0.964286867802172	-0.5879670257600598	0.0	1.020422566418302	-0.6802000805755782	0.0	0.9713968362009318	-0.7793567682060574	0.0	1.0118294531644163	-0.7970801346934506	0.0	1.0033384539666623	-0.8004312054286304	0.0	0.9581845738567358	-0.7921516680566169	0.0	0.9678871343191487	-0.5868195259252181	0.0	1.015423324735091	-0.6802768032914996	0.0	0.9726305537405077	-0.771143831037293	0.0	1.013991690076959	-0.7935784822958278	0.0	1.0070763238054299	-0.7893581175703733	0.0	0.9557337311844226	-0.7843539863965369	0.0	1.0011920166252763	-0.4488338697243282	0.0	1.022677597050736	-0.38446093839137796	0.0	1.0359005026049133	-0.41898146408327247	0.0	0.9988287796340969	-0.4626176158213388	0.0	1.0480887056599497	-0.5155809172032342	0.0	1.1129904140952107	-0.5470910943660622	0.0	0.9916433333296657	-0.4613457067892399	0.0	1.0231991427716878	-0.5136277130055117	0.0	1.0656839720567564	-0.5418186401632262	0.0
6	0.20127388535031848	0.965780785464854	-0.5983699505062842	0.0	0.9651923350441596	-0.5962795688660792	0.0	1.0233365721204195	-0.6867806580131735	0.0	0.9717199291052695	-0.785238188001669	0.0	1.0124640175013804	-0.803170305791694	0.0	1.004117544717659	-0.8063500546044616	0.0	0.9580393881631287	-0.7975169262548697	0.0	0.969474377331849	-0.5950403668480995	0.0	1.0194873153861599	-0.6868850701556674	0.0	0.9732144939805741	-0.7768756432381391	0.0	1.0157562392226802	-0.7997903250816188	0.0	1.008788420844328	-0.7952618221720463	0.0	0.9562104471186639	-0.7893818537169839	0.0	1.0017012835793968	-0.4564548537119221	0.0	1.0230897788661184	-0.39278578028987626	0.0	1.0368021576904416	-0.42671319276936615	0.0	0.997871033185893	-0.4713734772926236	0.0	1.039235242331695	-0.5320149298894908	0.0	1.0994082037367285	-0.5706065957190581	0.0	0.9943697615668077	-0.46993852275839343	0.0	1.0294168335804346	-0.526402790586285	0.0	1.0718961287186979	-0.5615172073859461	0.0
7	0.2348195329087049	0.9666546630936687	-0.6068607386117683	0.0	0.9668852101707631	-0.6046901698528827	0.0	1.0253188944618234	-0.6945884110505957	0.0	0.9718120937824245	-0.7923953820395554	0.0	1.0124744861113268	-0.8106848499287361	0.0	1.0041457297015886	-0.8134440893805641	0.0	0.9577236105043786	-0.8041157229067252	0.0	0.9712017132481717	-0.6033697260017603	0.0	1.02241416014507	-0.6945993956236336	0.0	0.9739366340825297	-0.7842172774143508	0.0	1.017214721992561	-0.8069738348200443	0.0	1.0102294898516353	-0.8023147550950557	0.0	0.9572286696937475	-0.7960252459022784	0.0	1.002117284004497	-0.4642569330773893	0.0	1.023321708845796	-0.4010974704775006	0.0	1.0374771433197874	-0.4347010760361836	0.0	0.997320232350522	-0.4804899470868393	0.0	1.0297521612710656	-0.5478455512321332	0.0	1.0836503334854801	-0.5926358724272028	0.0	0.9968597395331833	-0.47867022990144303	0.0	1.0337901888101548	-0.5390451545574136	0.0	1.0756169886185947	-0.5800993070901497	0.0
8	0.2683651804670913	0.9680274712076892	-0.6148923489510666	0.0	0.9690697504417868	-0.6125194028821744	0.0	1.0264243652966543	-0.7027580950646624	0.0	0.9715766962237753	-0.7999273132300699	0.0	1.0118738541270007	-0.8185626035840755	0.0	1.0032861418751675	-0.8207260382645908	0.0	0.9572439591805815	-0.8110990709258371	0.0	0.9727620216859019	-0.6111493307922158	0.0	1.0241432223522995	-0.7025790443532619	0.0	0.9747795165974625	-0.7922294982212054	0.0	1.018178343829498	-0.8141774312667798	0.0	1.0112295875560835	-0.8094982201360756	0.0	0.958764985903758	-0.8033489433286395	0.0	1.0024298997480814	-0.471541868328222	0.0	1.023676957301267	-0.4089238452661125	0.0	1.0380578518024675	-0.4422773684580088	0.0	0.9972870051143738	-0.48919444316322247	0.0	1.020213399652164	-0.5618679332413679	0.0	1.0662166569010953	-0.6120927083431245	0.0	0.998477598027022	-0.48669958707544086	0.0	1.034265618733743	-0.5510179209344866	0.0	1.073999662896484	-0.5971584718647301	0.0
9	0.3019108280254777	0.9698196284587272	-0.6218105845875935	0.0	0.9714169106571792	-0.6191959095745665	0.0	1.0268008172774137	-0.7102242503507767	0.0	0.9710555494512423	-0.8067368002797473	0.0	1.0107961938220413	-0.8256090402588635	0.0	1.0016641246106128	-0.827157398108546	0.0	0.9567361916726863	-0.8174637641335054	0.0	0.9741380886588453	-0.6178058479119687	0.0	1.0248198546740899	-0.7097896477067487	0.0	0.9756925895813172	-0.7996951188833595	0.0	1.0186435969542593	-0.8204249282283258	0.0	1.0119318265622486	-0.8157389049549817	0.0	0.9606392932338964	-0.8101904740456108	0.0	1.0027090848051545	-0.4776493252827693	0.0	1.024469139330407	-0.41574451904524046	0.0	1.0386789015533808	-0.44877892448569384	0.0	0.9976235430492739	-0.49661403861971487	0.0	1.0109624739699843	-0.5727730911885109	0.0	1.0474596211484322	-0.6277051909206465	0.0	0.9989821910334574	-0.493269596583095	0.0	1.0305024843790331	-0.5615052865820401	0.0	1.0665848283043269	-0.6119031839681248	0.0
10	0.3354564755838641	0.9719490653425014	-0.6269693497000233	0.0	0.9735705054407882	-0.6242230788497167	0.0	1.0266693417348227	-0.715953955239914	0.0	0.9704169499052292	-0.8118268151020736	0.0	1.0095524438568768	-0.8308168476649089	0.0	0.9996578476706963	-0.8319218337890689	0.0	0.9563764621699853	-0.8223189247021425	0.0	0.9754859881019388	-0.622838428388774	0.0	1.0246774009493196	-0.7152554885254739	0.0	0.9765454852263635	-0.8054936496429671	0.0	1.0187786582394327	-0.8250115261469262	0.0	1.012577650357411	-0.8202876707564769	0.0	0.9624404816716262	-0.8155806157398493	0.0	1.0030759767517108	-0.4820217039405018	0.0	1.0258649814594973	-0.42099856186096946	0.0	1.039453392169621	-0.45363803075460757	0.0	0.9980200598136703	-0.5019361514597385	0.0	1.002088313072142	-0.5795048610336908	0.0	1.027815424607048	-0.6383409818265522	0.0	0.9986105659149452	-0.4978072091737145	0.0	1.0230988346656087	-0.56950404766333	0.0	1.0540418197148929	-0.6232219792746928	0.0
